<?xml version="1.0" encoding="UTF-8"?>
<svg id="Layer_1" xmlns="http://www.w3.org/2000/svg" version="1.1" viewBox="0 0 1200 630">
  <!-- Generator: Adobe Illustrator 30.2.1, SVG Export Plug-In . SVG Version: 2.1.1 Build 1)  -->
  <defs>
    <style>
      .st0 {
        fill: #fff;
      }

      .st1 {
        fill: #0a0a0a;
      }

      .st2 {
        fill: #ec2024;
      }
    </style>
  </defs>
  <rect class="st1" width="1200" height="630"/>
  <g>
    <path class="st2" d="M204.26,319.61c0-20.61-8.03-39.99-22.6-54.53-14.57-14.57-33.93-22.6-54.53-22.6s-39.99,8.03-54.53,22.6c-14.57,14.57-22.6,33.93-22.6,54.53s8.03,39.99,22.6,54.53c14.57,14.57,33.93,22.6,54.53,22.6,11.49,0,22.6-2.49,32.74-7.23v15.07c0,2.22,1.41,4.02,3.13,4.02s3.13-1.77,3.13-4.02v-16.87c0-.47-.06-.94-.19-1.36,5.71-3.32,10.99-7.39,15.79-12.19,14.57-14.57,22.6-33.93,22.6-54.53h-.06v-.03ZM182.14,319.61c0,14.9-5.95,28.42-15.59,38.33v-59.02l7.7-7.7c5.01,8.31,7.92,18,7.92,28.39h-.03ZM72.1,319.61c0-30.33,24.68-55,55-55,11.96,0,23.04,3.85,32.07,10.36l-76.74,76.74c-6.51-9.03-10.36-20.11-10.36-32.07h.03v-.03ZM98.75,366.72l48.33-48.33v31.9c0,1.83,1.16,3.32,2.6,3.32s2.6-1.5,2.6-3.32v-37.11l7.31-7.31v58.13c-9.11,6.7-20.36,10.63-32.49,10.63-10.39,0-20.08-2.91-28.39-7.92h.03Z"/>
    <g>
      <path class="st0" d="M304.99,367.02h-43.43l-6.04,20.44h-39.05l46.53-123.8h41.74l46.53,123.8h-40.05l-6.2-20.44h-.03ZM297.07,340.27l-13.68-44.51-13.52,44.51h27.2Z"/>
      <path class="st0" d="M355.42,263.67h35.7l46.61,68.49v-68.49h36.06v123.8h-36.06l-46.36-67.96v67.96h-35.98v-123.8h.03Z"/>
      <path class="st0" d="M482.19,263.67h116.26v30.58h-39.02v93.22h-38.25v-93.22h-39.02v-30.58h.03Z"/>
      <path class="st0" d="M606.81,263.67h38.33v123.8h-38.33v-123.8Z"/>
      <path class="st0" d="M653.51,347.72l15.45-1.36c.72,6.2,2.44,11.27,5.12,15.23s6.81,7.17,12.46,9.64c5.62,2.44,11.96,3.68,19,3.68,6.26,0,11.77-.94,16.56-2.8s8.34-4.4,10.69-7.64,3.49-6.79,3.49-10.61-1.14-7.26-3.38-10.16-5.98-5.32-11.13-7.31c-3.32-1.3-10.66-3.3-22.05-6.04-11.38-2.71-19.33-5.29-23.9-7.73-5.9-3.1-10.33-6.95-13.21-11.55s-4.35-9.72-4.35-15.4c0-6.26,1.77-12.1,5.32-17.5,3.54-5.43,8.72-9.55,15.54-12.38,6.81-2.82,14.37-4.21,22.71-4.21,9.17,0,17.28,1.47,24.26,4.43,7.01,2.96,12.41,7.31,16.17,13.04,3.77,5.73,5.79,12.24,6.07,19.5l-15.7,1.16c-.83-7.84-3.71-13.74-8.59-17.72s-12.05-6.01-21.57-6.01-17.14,1.8-21.66,5.43c-4.51,3.63-6.81,8.03-6.81,13.13,0,4.46,1.61,8.11,4.82,10.97,3.13,2.85,11.38,5.82,24.68,8.81,13.32,2.99,22.43,5.65,27.42,7.89,7.2,3.32,12.52,7.53,15.98,12.6,3.43,5.1,5.15,10.97,5.15,17.61s-1.88,12.8-5.65,18.61c-3.77,5.84-9.19,10.36-16.26,13.6-7.06,3.24-15.04,4.85-23.85,4.85-11.22,0-20.58-1.63-28.17-4.9s-13.52-8.17-17.81-14.73c-4.32-6.56-6.56-13.99-6.81-22.24v.08h0v.03Z"/>
      <path class="st0" d="M790.71,387.46v-109.17h-40.77v-14.6h98.12v14.6h-40.96v109.2h-16.4v-.03Z"/>
      <path class="st0" d="M954.25,387.46v-123.8h89.51v14.6h-73.14v37.91h68.49v14.51h-68.49v42.12h73.14v14.6h-89.51v.06Z"/>
      <path class="st0" d="M856.4,387.46v-123.8h89.51v14.6h-73.14v37.91h68.49v14.51h-68.49v42.12h73.14v14.6h-89.51v.06Z"/>
      <path class="st0" d="M1052.12,387.46v-15.2l63.42-79.29c4.51-5.62,8.78-10.52,12.82-14.71h-76.24v-14.6h95.85v14.6l-69.49,85.88-7.53,8.7h79.04v14.6h-97.87v.03Z"/>
    </g>
  </g>
  <g>
    <path class="st0" d="M324.76,516.41h-4.19l8.46-47.86h-.31l-13.89,7.81.65-4.35,14.16-8h4.35l-9.23,52.4Z"/>
    <path class="st0" d="M344.21,489.83l.62-3.65c.87-4.9,2.2-9.07,3.98-12.52,1.78-3.45,4.01-6.1,6.69-7.96,2.68-1.86,5.75-2.79,9.21-2.79s6.15.79,8.44,2.37,4.04,3.81,5.23,6.69,1.79,6.28,1.79,10.18c0,1.21-.05,2.56-.15,4.06s-.29,3.01-.58,4.52l-.62,3.65c-.82,4.8-2.12,8.93-3.9,12.41-1.78,3.48-4.01,6.15-6.69,8.02s-5.79,2.81-9.33,2.81c-3.33,0-6.15-.76-8.44-2.27s-4.04-3.68-5.23-6.5c-1.19-2.82-1.79-6.16-1.79-10,0-1.31.06-2.74.17-4.29.12-1.55.31-3.12.6-4.71ZM348.9,486.79l-.69,3.73c-.26,1.41-.44,2.83-.56,4.27-.12,1.44-.17,2.73-.17,3.89,0,2.95.42,5.57,1.27,7.85.85,2.28,2.12,4.07,3.81,5.37,1.69,1.3,3.82,1.94,6.39,1.94,3.98,0,7.33-1.69,10.06-5.06,2.73-3.37,4.66-8.38,5.79-15.02l.69-3.73c.26-1.41.44-2.85.56-4.31s.17-2.8.17-4c-.03-2.69-.46-5.18-1.29-7.46-.83-2.28-2.1-4.12-3.81-5.5s-3.88-2.08-6.52-2.08c-3.92,0-7.22,1.71-9.89,5.12-2.67,3.41-4.6,8.41-5.81,15Z"/>
    <path class="st0" d="M380.2,527.88h-3.96l30.85-66.71h3.96l-30.85,66.71Z"/>
    <path class="st0" d="M411.35,476.09h-.04.04c.13-2.31.83-4.47,2.12-6.48,1.28-2.01,3.06-3.65,5.35-4.91,2.28-1.26,4.98-1.89,8.08-1.89,2.18,0,4.17.32,5.98.96,1.81.64,3.37,1.53,4.69,2.67,1.32,1.14,2.35,2.51,3.08,4.1.73,1.59,1.1,3.35,1.1,5.27,0,2.41-.5,4.61-1.5,6.6-1,1.99-2.28,3.86-3.83,5.62-1.55,1.76-3.19,3.47-4.91,5.14l-19.77,19.2-.08.35h26.24l-.62,3.69h-32.32l.54-3.15,23.47-22.81c1.36-1.36,2.71-2.78,4.04-4.27,1.33-1.49,2.43-3.08,3.29-4.77s1.29-3.5,1.29-5.42c0-1.77-.44-3.36-1.33-4.77-.88-1.41-2.14-2.53-3.77-3.35-1.63-.82-3.53-1.23-5.71-1.23s-4.24.44-5.87,1.33-2.91,2.05-3.85,3.48c-.94,1.44-1.49,2.99-1.67,4.66h-4.04Z"/>
    <path class="st0" d="M447.38,489.83l.62-3.65c.87-4.9,2.2-9.07,3.98-12.52,1.78-3.45,4.01-6.1,6.69-7.96,2.68-1.86,5.75-2.79,9.21-2.79s6.15.79,8.44,2.37,4.04,3.81,5.23,6.69,1.79,6.28,1.79,10.18c0,1.21-.05,2.56-.15,4.06s-.29,3.01-.58,4.52l-.62,3.65c-.82,4.8-2.12,8.93-3.9,12.41-1.78,3.48-4.01,6.15-6.69,8.02s-5.79,2.81-9.33,2.81c-3.33,0-6.15-.76-8.44-2.27s-4.04-3.68-5.23-6.5c-1.19-2.82-1.79-6.16-1.79-10,0-1.31.06-2.74.17-4.29.12-1.55.31-3.12.6-4.71ZM452.08,486.79l-.69,3.73c-.26,1.41-.44,2.83-.56,4.27-.12,1.44-.17,2.73-.17,3.89,0,2.95.42,5.57,1.27,7.85.85,2.28,2.12,4.07,3.81,5.37,1.69,1.3,3.82,1.94,6.39,1.94,3.98,0,7.33-1.69,10.06-5.06,2.73-3.37,4.66-8.38,5.79-15.02l.69-3.73c.26-1.41.44-2.85.56-4.31s.17-2.8.17-4c-.03-2.69-.46-5.18-1.29-7.46-.83-2.28-2.1-4.12-3.81-5.5s-3.88-2.08-6.52-2.08c-3.92,0-7.22,1.71-9.89,5.12-2.67,3.41-4.6,8.41-5.81,15Z"/>
    <path class="st0" d="M490.61,489.83l.62-3.65c.87-4.9,2.2-9.07,3.98-12.52,1.78-3.45,4.01-6.1,6.69-7.96,2.68-1.86,5.75-2.79,9.21-2.79s6.15.79,8.44,2.37c2.29,1.58,4.04,3.81,5.23,6.69s1.79,6.28,1.79,10.18c0,1.21-.05,2.56-.15,4.06-.1,1.5-.29,3.01-.58,4.52l-.62,3.65c-.82,4.8-2.12,8.93-3.9,12.41-1.78,3.48-4.01,6.15-6.69,8.02-2.68,1.87-5.79,2.81-9.33,2.81-3.33,0-6.15-.76-8.44-2.27s-4.04-3.68-5.23-6.5c-1.19-2.82-1.79-6.16-1.79-10,0-1.31.06-2.74.17-4.29.12-1.55.31-3.12.6-4.71ZM495.3,486.79l-.69,3.73c-.26,1.41-.44,2.83-.56,4.27-.12,1.44-.17,2.73-.17,3.89,0,2.95.42,5.57,1.27,7.85.85,2.28,2.12,4.07,3.81,5.37,1.69,1.3,3.82,1.94,6.39,1.94,3.98,0,7.33-1.69,10.06-5.06,2.73-3.37,4.66-8.38,5.79-15.02l.69-3.73c.26-1.41.44-2.85.56-4.31s.17-2.8.17-4c-.03-2.69-.46-5.18-1.29-7.46-.83-2.28-2.1-4.12-3.81-5.5s-3.88-2.08-6.52-2.08c-3.92,0-7.22,1.71-9.89,5.12-2.67,3.41-4.6,8.41-5.81,15Z"/>
    <path class="st0" d="M557.65,489.1c1.18.33,2.35.87,3.52,1.6,1.17.73,2.22,1.64,3.17,2.73.95,1.09,1.72,2.37,2.31,3.85.59,1.48.88,3.15.88,5.02,0,2.98-.76,5.62-2.29,7.93-1.53,2.31-3.64,4.12-6.33,5.42s-5.78,1.96-9.27,1.96-6.52-.63-9.16-1.89c-2.64-1.26-4.71-3-6.19-5.23-1.49-2.23-2.23-4.8-2.23-7.69s.67-5.2,2.02-7.29c1.35-2.09,3.11-3.74,5.29-4.96,2.18-1.22,4.49-1.9,6.93-2.06l.12-.27c-1.26-.59-2.5-1.39-3.73-2.4-1.23-1.01-2.26-2.28-3.08-3.81-.82-1.53-1.23-3.31-1.23-5.37,0-2.67.68-5.03,2.04-7.1,1.36-2.06,3.24-3.69,5.64-4.89,2.4-1.19,5.14-1.79,8.21-1.79s5.74.56,8.06,1.69c2.32,1.13,4.13,2.69,5.42,4.67,1.29,1.99,1.94,4.29,1.94,6.91,0,2.44-.57,4.57-1.71,6.41-1.14,1.83-2.63,3.28-4.46,4.35-1.83,1.06-3.78,1.67-5.83,1.83l-.04.38ZM549.73,513.87c2.64,0,4.99-.51,7.04-1.52,2.05-1.01,3.66-2.42,4.83-4.21,1.17-1.79,1.75-3.86,1.75-6.19,0-2.21-.56-4.17-1.69-5.91-1.13-1.73-2.7-3.08-4.71-4.06-2.01-.97-4.34-1.46-6.98-1.46s-5.02.51-7.06,1.54c-2.04,1.03-3.63,2.42-4.77,4.19-1.14,1.77-1.71,3.78-1.71,6.04s.57,4.33,1.71,6.06c1.14,1.73,2.71,3.08,4.69,4.06,1.99.98,4.29,1.46,6.91,1.46ZM553.88,486.9c2.26,0,4.26-.44,6-1.31,1.74-.87,3.12-2.1,4.14-3.67,1.01-1.58,1.52-3.37,1.52-5.37s-.48-3.83-1.44-5.33-2.29-2.67-3.98-3.5c-1.69-.83-3.65-1.25-5.89-1.25s-4.19.44-5.94,1.33c-1.76.88-3.14,2.12-4.14,3.69s-1.5,3.42-1.5,5.52c0,1.92.49,3.64,1.46,5.14.97,1.5,2.31,2.67,4.02,3.5,1.71.83,3.62,1.25,5.75,1.25Z"/>
    <path class="st0" d="M612.83,496.6h-24.31l.65-3.65h24.31l-.65,3.65Z"/>
    <path class="st0" d="M634.5,489.83l.62-3.65c.87-4.9,2.2-9.07,3.98-12.52,1.78-3.45,4.01-6.1,6.69-7.96,2.68-1.86,5.75-2.79,9.21-2.79s6.15.79,8.44,2.37c2.29,1.58,4.04,3.81,5.23,6.69s1.79,6.28,1.79,10.18c0,1.21-.05,2.56-.15,4.06-.1,1.5-.29,3.01-.58,4.52l-.62,3.65c-.82,4.8-2.12,8.93-3.9,12.41-1.78,3.48-4.01,6.15-6.69,8.02-2.68,1.87-5.79,2.81-9.33,2.81-3.33,0-6.15-.76-8.44-2.27-2.3-1.51-4.04-3.68-5.23-6.5-1.19-2.82-1.79-6.16-1.79-10,0-1.31.06-2.74.17-4.29.12-1.55.31-3.12.6-4.71ZM639.19,486.79l-.69,3.73c-.26,1.41-.44,2.83-.56,4.27-.12,1.44-.17,2.73-.17,3.89,0,2.95.42,5.57,1.27,7.85.85,2.28,2.12,4.07,3.81,5.37,1.69,1.3,3.82,1.94,6.39,1.94,3.98,0,7.33-1.69,10.06-5.06,2.73-3.37,4.66-8.38,5.79-15.02l.69-3.73c.26-1.41.44-2.85.56-4.31s.17-2.8.17-4c-.03-2.69-.46-5.18-1.29-7.46-.83-2.28-2.1-4.12-3.81-5.5-1.71-1.39-3.88-2.08-6.52-2.08-3.92,0-7.22,1.71-9.89,5.12-2.67,3.41-4.6,8.41-5.81,15Z"/>
    <path class="st0" d="M687.34,490.98l.65-3.89c1.05.03,2.01.04,2.89.06.87.01,1.64.02,2.31.02,2.23,0,4.35-.4,6.37-1.21,2.01-.81,3.65-2.03,4.91-3.65,1.26-1.63,1.89-3.64,1.89-6.02,0-3.03-1.08-5.4-3.25-7.12-2.17-1.72-4.87-2.58-8.1-2.58-2.26,0-4.16.38-5.69,1.13-1.54.76-2.74,1.71-3.6,2.87-.86,1.15-1.4,2.28-1.64,3.39h-4.08c.21-1.82.91-3.58,2.12-5.29,1.21-1.71,2.89-3.11,5.06-4.21,2.17-1.1,4.83-1.65,7.98-1.65,2.77,0,5.31.5,7.62,1.5s4.16,2.46,5.54,4.37c1.39,1.91,2.08,4.25,2.08,7.02s-.63,5.25-1.89,7.19c-1.26,1.95-2.83,3.44-4.71,4.48s-3.75,1.64-5.6,1.79l-.08.31c1.95.33,3.68,1.07,5.19,2.21,1.51,1.14,2.69,2.58,3.54,4.33.85,1.74,1.27,3.72,1.27,5.92,0,3.18-.78,5.95-2.33,8.31-1.55,2.36-3.67,4.17-6.35,5.44-2.68,1.27-5.73,1.9-9.14,1.9-3.15,0-5.96-.57-8.43-1.71s-4.38-2.67-5.75-4.58c-1.37-1.91-2.06-4.02-2.06-6.33,0-.36.01-.67.04-.94.03-.27.06-.51.12-.71h4c-.03.18-.04.35-.06.52-.01.17-.02.34-.02.52,0,1.74.56,3.33,1.67,4.77,1.12,1.44,2.61,2.58,4.48,3.44,1.87.86,3.95,1.29,6.23,1.29,2.41,0,4.64-.46,6.67-1.39s3.67-2.26,4.89-4.02c1.22-1.76,1.83-3.87,1.83-6.33,0-2.21-.53-4.13-1.58-5.77-1.05-1.64-2.5-2.93-4.35-3.87-1.85-.94-3.99-1.42-6.42-1.44l-4.23-.08Z"/>
    <path class="st0" d="M710.45,527.88h-3.96l30.85-66.71h3.96l-30.85,66.71Z"/>
    <path class="st0" d="M741.6,476.09h-.04.04c.13-2.31.83-4.47,2.12-6.48,1.28-2.01,3.06-3.65,5.35-4.91,2.28-1.26,4.98-1.89,8.08-1.89,2.18,0,4.17.32,5.98.96,1.81.64,3.37,1.53,4.69,2.67,1.32,1.14,2.35,2.51,3.08,4.1.73,1.59,1.1,3.35,1.1,5.27,0,2.41-.5,4.61-1.5,6.6-1,1.99-2.28,3.86-3.83,5.62-1.55,1.76-3.19,3.47-4.91,5.14l-19.77,19.2-.08.35h26.24l-.62,3.69h-32.32l.54-3.15,23.47-22.81c1.36-1.36,2.71-2.78,4.04-4.27,1.33-1.49,2.43-3.08,3.29-4.77.86-1.69,1.29-3.5,1.29-5.42,0-1.77-.44-3.36-1.33-4.77-.88-1.41-2.14-2.53-3.77-3.35-1.63-.82-3.53-1.23-5.71-1.23s-4.24.44-5.87,1.33c-1.63.88-2.91,2.05-3.85,3.48-.94,1.44-1.49,2.99-1.67,4.66h-4.04Z"/>
    <path class="st0" d="M777.63,489.83l.62-3.65c.87-4.9,2.2-9.07,3.98-12.52,1.78-3.45,4.01-6.1,6.69-7.96,2.68-1.86,5.75-2.79,9.21-2.79s6.15.79,8.44,2.37c2.29,1.58,4.04,3.81,5.23,6.69s1.79,6.28,1.79,10.18c0,1.21-.05,2.56-.15,4.06-.1,1.5-.29,3.01-.58,4.52l-.62,3.65c-.82,4.8-2.12,8.93-3.9,12.41-1.78,3.48-4.01,6.15-6.69,8.02-2.68,1.87-5.79,2.81-9.33,2.81-3.33,0-6.15-.76-8.44-2.27-2.3-1.51-4.04-3.68-5.23-6.5-1.19-2.82-1.79-6.16-1.79-10,0-1.31.06-2.74.17-4.29.12-1.55.31-3.12.6-4.71ZM782.33,486.79l-.69,3.73c-.26,1.41-.44,2.83-.56,4.27-.12,1.44-.17,2.73-.17,3.89,0,2.95.42,5.57,1.27,7.85.85,2.28,2.12,4.07,3.81,5.37,1.69,1.3,3.82,1.94,6.39,1.94,3.98,0,7.33-1.69,10.06-5.06,2.73-3.37,4.66-8.38,5.79-15.02l.69-3.73c.26-1.41.44-2.85.56-4.31s.17-2.8.17-4c-.03-2.69-.46-5.18-1.29-7.46-.83-2.28-2.1-4.12-3.81-5.5-1.71-1.39-3.88-2.08-6.52-2.08-3.92,0-7.22,1.71-9.89,5.12-2.67,3.41-4.6,8.41-5.81,15Z"/>
    <path class="st0" d="M832.67,516.41h-4.19l8.46-47.86h-.31l-13.89,7.81.65-4.35,14.16-8h4.35l-9.23,52.4Z"/>
    <path class="st0" d="M862.13,490.98l.65-3.89c1.05.03,2.01.04,2.89.06.87.01,1.64.02,2.31.02,2.23,0,4.35-.4,6.37-1.21,2.01-.81,3.65-2.03,4.91-3.65,1.26-1.63,1.89-3.64,1.89-6.02,0-3.03-1.08-5.4-3.25-7.12-2.17-1.72-4.87-2.58-8.1-2.58-2.26,0-4.16.38-5.69,1.13-1.54.76-2.74,1.71-3.6,2.87-.86,1.15-1.4,2.28-1.64,3.39h-4.08c.21-1.82.91-3.58,2.12-5.29,1.21-1.71,2.89-3.11,5.06-4.21,2.17-1.1,4.83-1.65,7.98-1.65,2.77,0,5.31.5,7.62,1.5s4.16,2.46,5.54,4.37c1.39,1.91,2.08,4.25,2.08,7.02s-.63,5.25-1.89,7.19c-1.26,1.95-2.83,3.44-4.71,4.48s-3.75,1.64-5.6,1.79l-.08.31c1.95.33,3.68,1.07,5.19,2.21,1.51,1.14,2.69,2.58,3.54,4.33.85,1.74,1.27,3.72,1.27,5.92,0,3.18-.78,5.95-2.33,8.31-1.55,2.36-3.67,4.17-6.35,5.44-2.68,1.27-5.73,1.9-9.14,1.9-3.15,0-5.96-.57-8.43-1.71s-4.38-2.67-5.75-4.58c-1.37-1.91-2.06-4.02-2.06-6.33,0-.36.01-.67.04-.94.03-.27.06-.51.12-.71h4c-.03.18-.04.35-.06.52-.01.17-.02.34-.02.52,0,1.74.56,3.33,1.67,4.77,1.12,1.44,2.61,2.58,4.48,3.44,1.87.86,3.95,1.29,6.23,1.29,2.41,0,4.64-.46,6.67-1.39s3.67-2.26,4.89-4.02c1.22-1.76,1.83-3.87,1.83-6.33,0-2.21-.53-4.13-1.58-5.77-1.05-1.64-2.5-2.93-4.35-3.87-1.85-.94-3.99-1.42-6.42-1.44l-4.23-.08Z"/>
  </g>
  <g>
    <path class="st0" d="M150.68,180.76h-6.97l-6.45-79.8h6.74l4.75,70.49h.47l31.58-70.49h6.5l7.21,70.49h.47l29.65-70.49h6.86l-34.39,79.8h-6.8l-7.68-69.55h-.41l-31.52,69.55Z"/>
    <path class="st0" d="M227.41,180.76l14.82-84.14h6.27l-6.09,33.63h.47c1.48-3.28,3.85-6,7.09-8.14,3.24-2.15,7.19-3.22,11.84-3.22,4.02,0,7.48.83,10.37,2.49,2.89,1.66,5.12,3.92,6.68,6.77,1.56,2.85,2.34,6.07,2.34,9.67,0,1.29-.09,2.64-.26,4.04s-.38,2.66-.62,3.75l-6.15,35.16h-6.27l6.21-35.45c.16-.66.3-1.63.44-2.9.14-1.27.21-2.47.21-3.6,0-4.1-1.24-7.55-3.72-10.34-2.48-2.79-6.06-4.19-10.75-4.19-3.83,0-7.13.91-9.9,2.72s-5.01,4.16-6.71,7.03-2.82,5.93-3.37,9.17l-6.62,37.56h-6.27Z"/>
    <path class="st0" d="M307.96,181.76c-3.4,0-6.49-.65-9.29-1.96s-5.02-3.2-6.68-5.68c-1.66-2.48-2.51-5.44-2.55-8.88,0-.39,0-.8.03-1.23.02-.43.03-.86.03-1.29.35-3.44,1.52-6.4,3.52-8.88,1.99-2.48,4.73-4.39,8.2-5.74s7.66-2.02,12.54-2.02h17.58l.82-4.98c.12-.51.21-1.14.29-1.9s.12-1.51.12-2.26c0-2.54-.57-4.75-1.7-6.62s-2.79-3.34-4.98-4.39-4.86-1.58-8.03-1.58-5.6.43-7.65,1.29c-2.05.86-3.67,1.93-4.86,3.22s-1.96,2.64-2.31,4.04h-6.15c.47-2.54,1.6-4.86,3.4-6.97s4.2-3.82,7.21-5.13c3.01-1.31,6.6-1.96,10.78-1.96s7.62.67,10.66,2.02,5.42,3.31,7.12,5.89,2.55,5.74,2.55,9.49c0,1.45-.09,2.85-.26,4.22-.18,1.37-.38,2.64-.62,3.81l-6.39,36.5h-6.15l1.52-8.67h-.47c-.59,1.21-1.68,2.58-3.28,4.1s-3.65,2.83-6.15,3.93-5.45,1.64-8.85,1.64ZM295.83,164.42c0,2.54.58,4.68,1.73,6.42,1.15,1.74,2.74,3.08,4.78,4.01s4.34,1.41,6.91,1.41c4.73,0,8.92-1.41,12.57-4.22s5.89-6.52,6.71-11.13l1.76-9.55h-17.17c-5.47,0-9.72,1.19-12.74,3.57-3.03,2.38-4.54,5.55-4.54,9.49Z"/>
    <path class="st0" d="M361.02,119.88l2.7-15h6.15l-2.64,15h15.23l-.94,5.21h-15.23l-6.56,37.5c-.27,1.76-.48,3.13-.62,4.1-.14.98-.21,1.8-.21,2.46,0,2.34.67,4.04,2.02,5.1s3.53,1.58,6.53,1.58c1.13,0,2.46-.06,3.98-.18s2.68-.23,3.46-.35l-1,5.39c-.74.16-1.88.3-3.43.44-1.54.14-2.98.21-4.31.21-4.65,0-8.1-.88-10.34-2.64s-3.37-4.45-3.37-8.09c0-1.52.23-3.65.7-6.39l6.91-39.14h-11.13l.88-5.21h11.19Z"/>
    <path class="st0" d="M405.62,180.76l14.82-84.14h6.27l-6.09,33.63h.47c1.48-3.28,3.85-6,7.09-8.14,3.24-2.15,7.19-3.22,11.84-3.22,4.02,0,7.48.83,10.37,2.49,2.89,1.66,5.12,3.92,6.68,6.77,1.56,2.85,2.34,6.07,2.34,9.67,0,1.29-.09,2.64-.26,4.04s-.38,2.66-.62,3.75l-6.15,35.16h-6.27l6.21-35.45c.16-.66.3-1.63.44-2.9.14-1.27.21-2.47.21-3.6,0-4.1-1.24-7.55-3.72-10.34-2.48-2.79-6.06-4.19-10.75-4.19-3.83,0-7.13.91-9.9,2.72s-5.01,4.16-6.71,7.03-2.82,5.93-3.37,9.17l-6.62,37.56h-6.27Z"/>
    <path class="st0" d="M486.16,181.76c-3.4,0-6.49-.65-9.29-1.96s-5.02-3.2-6.68-5.68c-1.66-2.48-2.51-5.44-2.55-8.88,0-.39,0-.8.03-1.23.02-.43.03-.86.03-1.29.35-3.44,1.52-6.4,3.52-8.88,1.99-2.48,4.73-4.39,8.2-5.74s7.66-2.02,12.54-2.02h17.58l.82-4.98c.12-.51.21-1.14.29-1.9s.12-1.51.12-2.26c0-2.54-.57-4.75-1.7-6.62s-2.79-3.34-4.98-4.39-4.86-1.58-8.03-1.58-5.6.43-7.65,1.29c-2.05.86-3.67,1.93-4.86,3.22s-1.96,2.64-2.31,4.04h-6.15c.47-2.54,1.6-4.86,3.4-6.97s4.2-3.82,7.21-5.13c3.01-1.31,6.6-1.96,10.78-1.96s7.62.67,10.66,2.02,5.42,3.31,7.12,5.89,2.55,5.74,2.55,9.49c0,1.45-.09,2.85-.26,4.22-.18,1.37-.38,2.64-.62,3.81l-6.39,36.5h-6.15l1.52-8.67h-.47c-.59,1.21-1.68,2.58-3.28,4.1s-3.65,2.83-6.15,3.93-5.45,1.64-8.85,1.64ZM474.04,164.42c0,2.54.58,4.68,1.73,6.42,1.15,1.74,2.74,3.08,4.78,4.01s4.34,1.41,6.91,1.41c4.73,0,8.92-1.41,12.57-4.22s5.89-6.52,6.71-11.13l1.76-9.55h-17.17c-5.47,0-9.72,1.19-12.74,3.57-3.03,2.38-4.54,5.55-4.54,9.49Z"/>
    <path class="st0" d="M553.88,181.76c-3.48,0-6.56-.68-9.26-2.05s-4.9-3.13-6.62-5.3-2.85-4.42-3.4-6.77h-.53l-5.68,32.93h-6.27l14.18-80.68h6.21l-1.82,9.96h.53c.82-1.84,2.07-3.59,3.75-5.27,1.68-1.68,3.76-3.05,6.24-4.1s5.32-1.58,8.53-1.58c6.37,0,11.56,2.03,15.59,6.09,4.02,4.06,6.04,9.55,6.04,16.46,0,1.02-.04,2.16-.12,3.43-.08,1.27-.23,2.51-.47,3.72l-1.82,10.72c-.7,4.38-2.16,8.25-4.37,11.63-2.21,3.38-5.07,6.03-8.58,7.94s-7.56,2.87-12.13,2.87ZM536.36,157.62c.08,3.91.93,7.24,2.55,9.99s3.74,4.83,6.36,6.24,5.45,2.11,8.5,2.11c3.52,0,6.61-.79,9.29-2.37s4.88-3.79,6.62-6.62c1.74-2.83,2.92-6.04,3.54-9.64l1.64-9.43c.12-.82.21-1.79.26-2.9s.09-2.1.09-2.96c0-3.59-.71-6.72-2.14-9.38-1.43-2.66-3.42-4.72-5.98-6.18s-5.56-2.2-8.99-2.2-6.35.79-9.08,2.37-5,3.75-6.8,6.5-3.01,5.91-3.63,9.46l-1.99,11.19c-.12.66-.19,1.37-.21,2.11-.02.74-.03,1.31-.03,1.7Z"/>
    <path class="st0" d="M616.25,181.76c-3.48,0-6.56-.68-9.26-2.05s-4.9-3.13-6.62-5.3-2.85-4.42-3.4-6.77h-.53l-5.68,32.93h-6.27l14.18-80.68h6.21l-1.82,9.96h.53c.82-1.84,2.07-3.59,3.75-5.27,1.68-1.68,3.76-3.05,6.24-4.1s5.32-1.58,8.53-1.58c6.37,0,11.56,2.03,15.59,6.09,4.02,4.06,6.04,9.55,6.04,16.46,0,1.02-.04,2.16-.12,3.43-.08,1.27-.23,2.51-.47,3.72l-1.82,10.72c-.7,4.38-2.16,8.25-4.37,11.63-2.21,3.38-5.07,6.03-8.58,7.94s-7.56,2.87-12.13,2.87ZM598.73,157.62c.08,3.91.93,7.24,2.55,9.99s3.74,4.83,6.36,6.24,5.45,2.11,8.5,2.11c3.52,0,6.61-.79,9.29-2.37s4.88-3.79,6.62-6.62c1.74-2.83,2.92-6.04,3.54-9.64l1.64-9.43c.12-.82.21-1.79.26-2.9s.09-2.1.09-2.96c0-3.59-.71-6.72-2.14-9.38-1.43-2.66-3.42-4.72-5.98-6.18s-5.56-2.2-8.99-2.2-6.35.79-9.08,2.37-5,3.75-6.8,6.5-3.01,5.91-3.63,9.46l-1.99,11.19c-.12.66-.19,1.37-.21,2.11-.02.74-.03,1.31-.03,1.7Z"/>
    <path class="st0" d="M674.18,181.76c-4.45,0-8.39-.86-11.81-2.58-3.42-1.72-6.1-4.28-8.06-7.68-1.95-3.4-2.93-7.56-2.93-12.48,0-1.52.1-3.08.29-4.66.2-1.58.37-2.88.53-3.9l1.29-7.62c.82-4.61,2.33-8.72,4.54-12.33,2.21-3.61,5.09-6.45,8.64-8.53,3.55-2.07,7.77-3.11,12.66-3.11,3.87,0,7.2.64,9.99,1.9,2.79,1.27,5.07,3.02,6.83,5.24s3.03,4.8,3.81,7.71c.78,2.91,1.03,5.99.76,9.23-.12,1.13-.27,2.35-.47,3.66-.2,1.31-.47,2.88-.82,4.72h-41.37c-.2,1.13-.35,2.31-.47,3.52-.12,1.21-.18,2.36-.18,3.46,0,3.32.59,6.33,1.79,9.02,1.19,2.7,3.05,4.83,5.57,6.42s5.75,2.37,9.7,2.37c3.12,0,5.83-.48,8.12-1.44,2.29-.96,4.11-2.16,5.48-3.6,1.37-1.44,2.23-2.93,2.58-4.45h6.15c-.35,2.27-1.46,4.57-3.31,6.91-1.86,2.34-4.42,4.3-7.68,5.86-3.26,1.56-7.14,2.34-11.63,2.34ZM694.34,146.19c.16-.47.26-1,.32-1.58s.11-1.19.15-1.82c.31-3.52-.08-6.67-1.17-9.46-1.09-2.79-2.84-5.01-5.24-6.65s-5.5-2.46-9.29-2.46c-3.28,0-6.22.72-8.82,2.17-2.6,1.45-4.78,3.53-6.53,6.24-1.76,2.72-3.05,5.97-3.87,9.76-.16.63-.29,1.25-.41,1.88-.12.63-.23,1.27-.35,1.93h35.21Z"/>
    <path class="st0" d="M707.44,180.76l10.72-60.88h6.15l-1.88,10.37h.47c1.56-3.36,3.96-6.09,7.18-8.2s7.1-3.16,11.63-3.16c4.02,0,7.46.84,10.31,2.52,2.85,1.68,5.04,3.94,6.56,6.77,1.52,2.83,2.29,6.03,2.29,9.58,0,1.33-.1,2.7-.29,4.1-.2,1.41-.39,2.66-.59,3.75l-6.15,35.16h-6.27l6.21-35.45c.12-.66.25-1.62.41-2.87.16-1.25.23-2.44.23-3.57,0-4.1-1.22-7.56-3.66-10.37-2.44-2.81-5.99-4.22-10.63-4.22-3.79,0-7.06.9-9.81,2.7-2.75,1.8-4.97,4.14-6.65,7.03-1.68,2.89-2.79,5.96-3.34,9.2l-6.62,37.56h-6.27Z"/>
    <path class="st0" d="M793.72,181.76c-4.45,0-8.39-.86-11.81-2.58-3.42-1.72-6.1-4.28-8.06-7.68-1.95-3.4-2.93-7.56-2.93-12.48,0-1.52.1-3.08.29-4.66.2-1.58.37-2.88.53-3.9l1.29-7.62c.82-4.61,2.33-8.72,4.54-12.33,2.21-3.61,5.09-6.45,8.64-8.53,3.55-2.07,7.77-3.11,12.66-3.11,3.87,0,7.2.64,9.99,1.9,2.79,1.27,5.07,3.02,6.83,5.24s3.03,4.8,3.81,7.71c.78,2.91,1.03,5.99.76,9.23-.12,1.13-.27,2.35-.47,3.66-.2,1.31-.47,2.88-.82,4.72h-41.37c-.2,1.13-.35,2.31-.47,3.52-.12,1.21-.18,2.36-.18,3.46,0,3.32.59,6.33,1.79,9.02,1.19,2.7,3.05,4.83,5.57,6.42s5.75,2.37,9.7,2.37c3.12,0,5.83-.48,8.12-1.44,2.29-.96,4.11-2.16,5.48-3.6,1.37-1.44,2.23-2.93,2.58-4.45h6.15c-.35,2.27-1.46,4.57-3.31,6.91-1.86,2.34-4.42,4.3-7.68,5.86-3.26,1.56-7.14,2.34-11.63,2.34ZM813.88,146.19c.16-.47.26-1,.32-1.58s.11-1.19.15-1.82c.31-3.52-.08-6.67-1.17-9.46-1.09-2.79-2.84-5.01-5.24-6.65s-5.5-2.46-9.29-2.46c-3.28,0-6.22.72-8.82,2.17-2.6,1.45-4.78,3.53-6.53,6.24-1.76,2.72-3.05,5.97-3.87,9.76-.16.63-.29,1.25-.41,1.88-.12.63-.23,1.27-.35,1.93h35.21Z"/>
    <path class="st0" d="M855.46,118.89c3.52,0,6.63.65,9.35,1.96,2.71,1.31,4.94,3.01,6.68,5.1,1.74,2.09,2.86,4.35,3.37,6.77h.53l6.39-36.09h6.33l-15,84.14h-6.09l1.82-10.49h-.53c-.82,1.95-2.1,3.81-3.84,5.57-1.74,1.76-3.86,3.17-6.36,4.25-2.5,1.07-5.35,1.61-8.55,1.61-4.14,0-7.84-.92-11.1-2.75-3.26-1.84-5.81-4.43-7.65-7.79-1.84-3.36-2.75-7.27-2.75-11.72,0-1.29.05-2.65.15-4.07.1-1.43.24-2.65.44-3.66l1.93-10.84c.78-4.3,2.26-8.1,4.45-11.4,2.19-3.3,5.01-5.89,8.47-7.76s7.45-2.81,11.98-2.81ZM873.27,142.68c0-3.87-.81-7.16-2.43-9.87-1.62-2.71-3.77-4.8-6.45-6.27-2.68-1.46-5.58-2.2-8.7-2.2-5.24,0-9.5,1.72-12.8,5.16-3.3,3.44-5.48,7.95-6.53,13.54l-1.64,9.38c-.12.7-.23,1.58-.32,2.64-.1,1.05-.15,2.11-.15,3.16,0,5.51,1.53,9.85,4.6,13.04,3.07,3.18,7.18,4.78,12.33,4.78,3.4,0,6.47-.78,9.23-2.34,2.75-1.56,5.04-3.72,6.86-6.47s3.04-5.91,3.66-9.46l2.05-11.25c.08-.7.15-1.4.21-2.08.06-.68.09-1.26.09-1.73Z"/>
    <path class="st0" d="M924.49,119.88l2.7-15h6.15l-2.64,15h15.23l-.94,5.21h-15.23l-6.56,37.5c-.27,1.76-.48,3.13-.62,4.1-.14.98-.21,1.8-.21,2.46,0,2.34.67,4.04,2.02,5.1s3.52,1.58,6.53,1.58c1.13,0,2.46-.06,3.98-.18s2.67-.23,3.46-.35l-1,5.39c-.74.16-1.88.3-3.43.44-1.54.14-2.98.21-4.31.21-4.65,0-8.1-.88-10.34-2.64-2.25-1.76-3.37-4.45-3.37-8.09,0-1.52.23-3.65.7-6.39l6.91-39.14h-11.13l.88-5.21h11.19Z"/>
    <path class="st0" d="M948.9,150.94l1.41-8.5c.94-5.31,2.67-9.71,5.19-13.18,2.52-3.48,5.59-6.07,9.2-7.79,3.61-1.72,7.47-2.58,11.57-2.58,4.37,0,8.37.88,11.98,2.64,3.61,1.76,6.48,4.39,8.61,7.91,2.13,3.52,3.19,7.91,3.19,13.18,0,.94-.05,2.03-.15,3.28-.1,1.25-.24,2.46-.44,3.63l-1.52,8.55c-.86,5.12-2.49,9.43-4.89,12.95s-5.42,6.18-9.05,8-7.79,2.72-12.48,2.72c-4.42,0-8.39-.92-11.92-2.75-3.54-1.84-6.31-4.49-8.32-7.97-2.01-3.48-3.02-7.68-3.02-12.6,0-1.29.05-2.56.15-3.81.1-1.25.26-2.48.5-3.69ZM956.34,143.73l-1.35,7.44c-.16.98-.29,2.01-.41,3.11-.12,1.09-.18,2.25-.18,3.46,0,5.43,1.6,9.86,4.8,13.3,3.2,3.44,7.5,5.16,12.89,5.16s9.54-1.73,13.04-5.19c3.5-3.46,5.79-8.31,6.88-14.56l1.35-7.73c.16-1.02.27-2.15.35-3.4.08-1.25.12-2.19.12-2.81,0-5.27-1.59-9.61-4.78-13.01-3.18-3.4-7.51-5.1-12.98-5.1-3.09,0-5.98.66-8.67,1.99-2.7,1.33-5.01,3.42-6.94,6.27-1.93,2.85-3.31,6.54-4.13,11.07Z"/>
    <path class="st0" d="M1004.07,175.84c0-1.68.58-3.11,1.73-4.28,1.15-1.17,2.53-1.76,4.13-1.76s3.1.58,4.25,1.73c1.15,1.15,1.73,2.59,1.73,4.31s-.58,3.02-1.73,4.13c-1.15,1.11-2.57,1.67-4.25,1.67s-2.98-.56-4.13-1.67c-1.15-1.11-1.73-2.49-1.73-4.13Z"/>
    <path class="st0" d="M1027.49,175.84c0-1.68.58-3.11,1.73-4.28,1.15-1.17,2.53-1.76,4.13-1.76s3.1.58,4.25,1.73c1.15,1.15,1.73,2.59,1.73,4.31s-.58,3.02-1.73,4.13c-1.15,1.11-2.57,1.67-4.25,1.67s-2.98-.56-4.13-1.67c-1.15-1.11-1.73-2.49-1.73-4.13Z"/>
    <path class="st0" d="M1050.9,175.84c0-1.68.58-3.11,1.73-4.28,1.15-1.17,2.53-1.76,4.13-1.76s3.1.58,4.25,1.73c1.15,1.15,1.73,2.59,1.73,4.31s-.58,3.02-1.73,4.13c-1.15,1.11-2.57,1.67-4.25,1.67s-2.98-.56-4.13-1.67c-1.15-1.11-1.73-2.49-1.73-4.13Z"/>
  </g>
</svg>