<?xml version="1.0" encoding="UTF-8"?>
<svg id="Layer_1" xmlns="http://www.w3.org/2000/svg" version="1.1" viewBox="0 0 400 64">
  <!-- Generator: Adobe Illustrator 30.2.1, SVG Export Plug-In . SVG Version: 2.1.1 Build 1)  -->
  <defs>
    <style>
      .st0 {
        fill: #fff;
      }

      .st1 {
        fill: #ec2024;
      }
    </style>
  </defs>
  <path class="st1" d="M57.59,30.04c0-7.44-2.9-14.44-8.16-19.69-5.26-5.26-12.25-8.16-19.69-8.16s-14.44,2.9-19.69,8.16C4.79,15.61,1.89,22.6,1.89,30.04s2.9,14.44,8.16,19.69c5.26,5.26,12.25,8.16,19.69,8.16,4.15,0,8.16-.9,11.82-2.61v5.44c0,.8.51,1.45,1.13,1.45s1.13-.64,1.13-1.45v-6.09c0-.17-.02-.34-.07-.49,2.06-1.2,3.97-2.67,5.7-4.4,5.26-5.26,8.16-12.25,8.16-19.69h0ZM49.6,30.04c0,5.38-2.15,10.26-5.63,13.84v-21.31l2.78-2.78c1.81,3,2.86,6.5,2.86,10.25h0ZM9.87,30.04c0-10.95,8.91-19.86,19.86-19.86,4.32,0,8.32,1.39,11.58,3.74l-27.71,27.71c-2.35-3.26-3.74-7.26-3.74-11.58h0ZM19.49,47.05l17.45-17.45v11.52c0,.66.42,1.2.94,1.2s.94-.54.94-1.2v-13.4l2.64-2.64v20.99c-3.29,2.42-7.35,3.84-11.73,3.84-3.75,0-7.25-1.05-10.25-2.86h0Z"/>
  <g>
    <path class="st0" d="M93.96,47.16h-15.68l-2.18,7.38h-14.1l16.8-44.7h15.07l16.8,44.7h-14.46l-2.24-7.38h0ZM91.1,37.5l-4.94-16.07-4.88,16.07h9.82Z"/>
    <path class="st0" d="M112.17,9.84h12.89l16.83,24.73V9.84h13.02v44.7h-13.02l-16.74-24.54v24.54h-12.99V9.84Z"/>
    <path class="st0" d="M157.94,9.84h41.98v11.04h-14.09v33.66h-13.81V20.88h-14.09v-11.04Z"/>
    <path class="st0" d="M202.94,9.84h13.84v44.7h-13.84V9.84Z"/>
    <path class="st0" d="M219.8,40.19l5.58-.49c.26,2.24.88,4.07,1.85,5.5s2.46,2.59,4.5,3.48c2.03.88,4.32,1.33,6.86,1.33,2.26,0,4.25-.34,5.98-1.01s3.01-1.59,3.86-2.76c.85-1.17,1.26-2.45,1.26-3.83s-.41-2.62-1.22-3.67-2.16-1.92-4.02-2.64c-1.2-.47-3.85-1.19-7.96-2.18-4.11-.98-6.98-1.91-8.63-2.79-2.13-1.12-3.73-2.51-4.77-4.17s-1.57-3.51-1.57-5.56c0-2.26.64-4.37,1.92-6.32,1.28-1.96,3.15-3.45,5.61-4.47,2.46-1.02,5.19-1.52,8.2-1.52,3.31,0,6.24.53,8.76,1.6,2.53,1.07,4.48,2.64,5.84,4.71,1.36,2.07,2.09,4.42,2.19,7.04l-5.67.42c-.3-2.83-1.34-4.96-3.1-6.4s-4.35-2.17-7.79-2.17-6.19.65-7.82,1.96c-1.63,1.31-2.46,2.9-2.46,4.74,0,1.61.58,2.93,1.74,3.96,1.13,1.03,4.11,2.1,8.91,3.18,4.81,1.08,8.1,2.04,9.9,2.85,2.6,1.2,4.52,2.72,5.77,4.55,1.24,1.84,1.86,3.96,1.86,6.36s-.68,4.62-2.04,6.72c-1.36,2.11-3.32,3.74-5.87,4.91-2.55,1.17-5.43,1.75-8.61,1.75-4.05,0-7.43-.59-10.17-1.77s-4.88-2.95-6.43-5.32c-1.56-2.37-2.37-5.05-2.46-8.03v.03Z"/>
    <path class="st0" d="M269.34,54.54V15.12h-14.72v-5.27h35.43v5.27h-14.79v39.43h-5.92Z"/>
    <path class="st0" d="M328.39,54.54V9.84h32.32v5.27h-26.41v13.69h24.73v5.24h-24.73v15.21h26.41v5.27h-32.32Z"/>
    <path class="st0" d="M293.06,54.54V9.84h32.32v5.27h-26.41v13.69h24.73v5.24h-24.73v15.21h26.41v5.27h-32.32Z"/>
    <path class="st0" d="M363.73,54.54v-5.49l22.9-28.63c1.63-2.03,3.17-3.8,4.63-5.31h-27.53v-5.27h34.61v5.27l-25.09,31.01-2.72,3.14h28.54v5.27h-35.34Z"/>
  </g>
</svg>