<?xml version="1.0" encoding="UTF-8"?>
<svg id="Layer_1" xmlns="http://www.w3.org/2000/svg" version="1.1" viewBox="0 0 400 109.27">
  <!-- Generator: Adobe Illustrator 30.2.1, SVG Export Plug-In . SVG Version: 2.1.1 Build 1)  -->
  <defs>
    <style>
      .st0 {
        fill: #fff;
      }

      .st1 {
        fill: #ec2024;
      }
    </style>
  </defs>
  <path class="st1" d="M117.24,50.96c0-12.81-4.99-24.86-14.05-33.91-9.06-9.06-21.1-14.05-33.91-14.05s-24.86,4.99-33.91,14.05c-9.06,9.06-14.05,21.1-14.05,33.91s4.99,24.86,14.05,33.91c9.06,9.06,21.1,14.05,33.91,14.05,7.15,0,14.06-1.55,20.35-4.5v9.36c0,1.37.87,2.49,1.94,2.49s1.94-1.11,1.94-2.49v-10.49c0-.3-.04-.58-.12-.85,3.54-2.06,6.83-4.6,9.81-7.57,9.06-9.06,14.05-21.1,14.05-33.91ZM103.48,50.96c0,9.26-3.7,17.67-9.7,23.84v-36.7l4.78-4.78c3.12,5.16,4.92,11.2,4.92,17.65ZM35.07,50.96c0-18.86,15.34-34.2,34.2-34.2,7.44,0,14.33,2.39,19.95,6.44l-47.72,47.72c-4.05-5.62-6.44-12.51-6.44-19.95ZM51.63,80.25l30.06-30.06v19.84c0,1.14.72,2.07,1.62,2.07s1.62-.93,1.62-2.07v-23.08l4.55-4.55v36.15c-5.66,4.16-12.65,6.62-20.2,6.62-6.45,0-12.49-1.8-17.65-4.92Z"/>
  <g>
    <path class="st0" d="M38.68,84.22h-18.52l-2.57,8.72H.93l19.84-52.8h17.8l19.84,52.8h-17.08l-2.64-8.72ZM35.3,72.81l-5.83-18.98-5.77,18.98h11.59Z"/>
    <path class="st0" d="M60.19,40.14h15.23l19.88,29.21v-29.21h15.38v52.8h-15.38l-19.77-28.99v28.99h-15.34v-52.8Z"/>
    <path class="st0" d="M114.25,40.14h49.59v13.04h-16.64v39.76h-16.31v-39.76h-16.64v-13.04Z"/>
    <path class="st0" d="M167.41,40.14h16.35v52.8h-16.35v-52.8Z"/>
    <path class="st0" d="M187.32,75.98l6.59-.58c.31,2.64,1.04,4.81,2.18,6.5,1.14,1.69,2.91,3.06,5.31,4.11,2.4,1.04,5.1,1.57,8.1,1.57,2.67,0,5.02-.4,7.06-1.19,2.04-.79,3.56-1.88,4.56-3.26,1-1.38,1.49-2.89,1.49-4.52s-.48-3.1-1.44-4.34c-.96-1.24-2.55-2.27-4.75-3.12-1.42-.55-4.55-1.41-9.4-2.58-4.85-1.16-8.25-2.26-10.19-3.3-2.52-1.32-4.4-2.96-5.64-4.92-1.24-1.96-1.86-4.15-1.86-6.57,0-2.67.76-5.16,2.27-7.47,1.51-2.32,3.72-4.08,6.63-5.28,2.9-1.2,6.13-1.8,9.69-1.8,3.91,0,7.37.63,10.35,1.89,2.99,1.26,5.29,3.12,6.9,5.56,1.61,2.45,2.47,5.22,2.59,8.32l-6.7.5c-.36-3.34-1.58-5.86-3.66-7.56-2.08-1.7-5.14-2.56-9.2-2.56s-7.31.77-9.24,2.32c-1.93,1.55-2.9,3.42-2.9,5.6,0,1.9.68,3.46,2.05,4.68,1.34,1.22,4.86,2.48,10.53,3.76,5.68,1.28,9.57,2.41,11.69,3.37,3.07,1.42,5.34,3.21,6.81,5.38,1.46,2.17,2.2,4.68,2.2,7.51s-.8,5.46-2.41,7.94c-1.61,2.49-3.92,4.42-6.93,5.8-3.01,1.38-6.41,2.07-10.17,2.07-4.78,0-8.78-.7-12.01-2.09-3.23-1.39-5.76-3.49-7.6-6.28-1.84-2.8-2.8-5.96-2.9-9.49Z"/>
    <path class="st0" d="M245.83,92.94v-46.57h-17.39v-6.23h41.85v6.23h-17.47v46.57h-6.99Z"/>
    <path class="st0" d="M315.59,92.94v-52.8h38.18v6.23h-31.19v16.17h29.21v6.19h-29.21v17.97h31.19v6.23h-38.18Z"/>
    <path class="st0" d="M273.85,92.94v-52.8h38.18v6.23h-31.19v16.17h29.21v6.19h-29.21v17.97h31.19v6.23h-38.18Z"/>
    <path class="st0" d="M357.33,92.94v-6.48l27.05-33.82c1.92-2.4,3.75-4.49,5.47-6.27h-32.52v-6.23h40.88v6.23l-29.64,36.63-3.21,3.71h33.71v6.23h-41.74Z"/>
  </g>
</svg>