<?xml version="1.0" encoding="UTF-8"?>
<svg id="Layer_1" xmlns="http://www.w3.org/2000/svg" version="1.1" viewBox="0 0 59.89 64">
  <!-- Generator: Adobe Illustrator 30.2.1, SVG Export Plug-In . SVG Version: 2.1.1 Build 1)  -->
  <defs>
    <style>
      .st0 {
        fill: #ec2024;
      }
    </style>
  </defs>
  <path class="st0" d="M57.59,30.04c0-7.44-2.9-14.44-8.16-19.69-5.26-5.26-12.25-8.16-19.69-8.16s-14.44,2.9-19.69,8.16C4.79,15.61,1.89,22.6,1.89,30.04s2.9,14.44,8.16,19.69c5.26,5.26,12.25,8.16,19.69,8.16,4.15,0,8.16-.9,11.82-2.61v5.44c0,.8.51,1.45,1.13,1.45s1.13-.64,1.13-1.45v-6.09c0-.17-.02-.34-.07-.49,2.06-1.2,3.97-2.67,5.7-4.4,5.26-5.26,8.16-12.25,8.16-19.69h-.02ZM49.6,30.04c0,5.38-2.15,10.26-5.63,13.84v-21.31l2.78-2.78c1.81,3,2.86,6.5,2.86,10.25h0ZM9.87,30.04c0-10.95,8.91-19.86,19.86-19.86,4.32,0,8.32,1.39,11.58,3.74l-27.71,27.71c-2.35-3.26-3.74-7.26-3.74-11.58h.01ZM19.49,47.05l17.45-17.45v11.52c0,.66.42,1.2.94,1.2s.94-.54.94-1.2v-13.4l2.64-2.64v20.99c-3.29,2.42-7.35,3.84-11.73,3.84-3.75,0-7.25-1.05-10.25-2.86h.01Z"/>
</svg>